:SAMPLES-PER-SECOND 30
:FULLY-SPECIFIED
:DEGREES
50
root  -5.05814 37.8654 10.6435 -174.986 52.0583 -175.568
RightUpLeg  -23.2999 -22.733 -0.719048
RightLeg  27.8535 -2.11038 -1.44438
RightFoot  -3.13664 -1.14072 15.522
RightToes  -1.39699e-009 0 -3.6325e-017
Spine  15.3249 -0.955883 -17.5182
Spine1  24.8375 -10.0215 14.2029
HEad  -30.433 53.1647 -23.2779
LeftShoulder1  1.32801 -4.26866 -9.74807
LeftArm  9.03932 -44.7652 -61.8844
LeftForeArm  -20.8157 -68.6207 -33.7441
LeftHand  -0.301489 4.15896 28.0163
RightShoulder  0.771661 1.46276 8.06734
RightArm  -27.2765 -10.5734 39.0787
RightForeArm  -7.4428 59.5888 20.3138
RightHand  0.0014239 -8.60986 -1.86731
LeftUpLeg  -12.0615 -9.6449 12.9516
LeftLeg  33.8906 -5.39497 -3.52927
LeftFoot  -20.4803 -1.07737 -14.9377
LeftToes  3.40148e-010 1.80944e-010 1.01921e-010
51
root  -5.23694 37.7534 10.8235 -175.105 44.7397 -175.823
RightUpLeg  -23.3258 -26.1582 -1.33906
RightLeg  29.2899 -4.73424 -3.11065
RightFoot  -3.78282 -1.16326 17.1005
RightToes  -1.39699e-009 0 -3.6325e-017
Spine  15.9534 -0.190662 -17.3904
Spine1  23.7934 -9.87945 16.1323
HEad  -26.4641 48.5273 -16.4225
LeftShoulder1  1.40767 -4.5901 -10.092
LeftArm  19.3924 -49.2159 -70.049
LeftForeArm  -19.5478 -65.8889 -28.7065
LeftHand  -0.875746 2.16568 30.8544
RightShoulder  0.889076 1.9457 8.93565
RightArm  -34.9641 -13.5288 41.3386
RightForeArm  -8.99234 58.0812 19.1923
RightHand  -0.0300776 -5.58695 -10.6914
LeftUpLeg  -15.2404 -12.7456 13.9805
LeftLeg  34.3672 -7.76118 -5.31782
LeftFoot  -20.7539 -1.05947 -14.3103
LeftToes  3.40148e-010 1.80944e-010 1.01921e-010
52
root  -5.36393 37.6831 10.9781 -175.403 37.5951 -176.352
RightUpLeg  -23.1373 -29.1399 -2.45335
RightLeg  30.8992 -7.61028 -5.13287
RightFoot  -4.07447 -1.23311 18.813
RightToes  -1.39699e-009 0 -3.6325e-017
Spine  16.3415 0.680049 -16.393
Spine1  22.6135 -8.76075 16.5722
HEad  -23.2125 43.2198 -9.97985
LeftShoulder1  1.47709 -4.70442 -10.7632
LeftArm  30.6108 -49.9768 -79.7777
LeftForeArm  -14.1749 -64.5843 -26.3564
LeftHand  -1.75559 -0.410153 34.4823
RightShoulder  1.01387 2.56364 9.38871
RightArm  -44.1101 -14.0261 44.876
RightForeArm  -7.97404 57.0026 18.2905
RightHand  -0.955888 -0.34992 -21.4697
LeftUpLeg  -18.1666 -16.1845 14.65
LeftLeg  34.4023 -9.74886 -6.76021
LeftFoot  -20.5259 -1.01128 -14.0584
LeftToes  3.40148e-010 1.80944e-010 1.01921e-010
53
root  -5.47406 37.6656 11.0753 -175.741 31.0777 -176.881
RightUpLeg  -22.597 -31.8527 -4.01517
RightLeg  32.4749 -8.68494 -6.15186
RightFoot  -3.77241 -1.38424 20.3241
RightToes  -1.39699e-009 0 -3.6325e-017
Spine  16.5916 1.45624 -14.2247
Spine1  21.4579 -6.78605 15.1726
HEad  -20.0378 37.3945 -3.99495
LeftShoulder1  1.6361 -5.15174 -11.7614
LeftArm  37.6798 -46.4615 -86.2341
LeftForeArm  -6.55943 -65.601 -27.0648
LeftHand  -2.45304 -2.20238 36.6463
RightShoulder  1.04405 2.96217 8.74769
RightArm  -53.0851 -9.90108 48.7171
RightForeArm  -4.55293 54.1057 16.0702
RightHand  -2.61808 4.39586 -30.8964
LeftUpLeg  -20.6384 -20.0297 15.0454
LeftLeg  34.152 -11.1728 -7.7077
LeftFoot  -19.8628 -0.920611 -13.8913
LeftToes  3.40148e-010 1.80944e-010 1.01921e-010
54
root  -5.61407 37.652 11.1524 -176.411 25.8752 -177.523
RightUpLeg  -21.6567 -33.2835 -6.35786
RightLeg  34.1563 -7.01008 -5.33068
RightFoot  -3.00459 -1.60653 21.5207
RightToes  -1.39699e-009 0 -3.6325e-017
Spine  17.4672 2.2413 -10.9089
Spine1  19.6115 -3.88138 11.8142
HEad  -16.1246 30.9733 1.41197
LeftShoulder1  1.93355 -5.97276 -13.4196
LeftArm  39.2243 -40.2337 -86.56
LeftForeArm  1.98779 -68.821 -31.6306
LeftHand  -2.7441 -2.89928 37.4431
RightShoulder  0.890272 2.64813 6.83577
RightArm  -58.0615 -1.153 51.4113
RightForeArm  -1.15808 50.0602 13.5315
RightHand  -3.67377 6.37869 -35.5382
LeftUpLeg  -22.3204 -23.2698 14.8117
LeftLeg  34.0312 -11.8951 -8.18012
LeftFoot  -19.0186 -0.787868 -13.3813
LeftToes  3.40148e-010 1.80944e-010 1.01921e-010
